<?xml version="1.0" standalone="no"?>
<!DOCTYPE svg PUBLIC "-//W3C//DTD SVG 20010904//EN"
 "http://www.w3.org/TR/2001/REC-SVG-20010904/DTD/svg10.dtd">
<svg version="1.0" xmlns="http://www.w3.org/2000/svg"
 width="512.000000pt" height="512.000000pt" viewBox="0 0 512.000000 512.000000"
 preserveAspectRatio="xMidYMid meet">
<metadata>
Created by potrace 1.14, written by Peter Selinger 2001-2017
</metadata>
<g transform="translate(0.000000,512.000000) scale(0.100000,-0.100000)"
fill="#000000" stroke="none">
<path d="M272 5100 c-29 -10 -68 -28 -86 -39 -53 -33 -125 -117 -154 -179
l-27 -57 0 -2265 0 -2265 32 -66 c39 -80 120 -159 200 -197 l58 -27 2265 0
2265 0 66 32 c80 39 159 120 197 200 l27 58 0 2265 0 2265 -32 66 c-40 80
-120 159 -200 197 l-58 27 -2250 2 c-2190 2 -2251 2 -2303 -17z m1808 -1725
l0 -535 480 0 480 0 0 535 0 535 320 0 320 0 0 -1350 0 -1350 -320 0 -320 0 0
565 0 565 -480 0 -480 0 0 -565 0 -565 -320 0 -320 0 0 1350 0 1350 320 0 320
0 0 -535z"/>
</g>
</svg>
